<svg xmlns="http://www.w3.org/2000/svg" direction="ltr" width="950.1698084282793" height="615.8133134698912" viewBox="348.8000183105469 -3.2133471574643124 950.1698084282793 615.8133134698912" stroke-linecap="round" stroke-linejoin="round" data-color-mode="dark" class="tl-container tl-theme__force-sRGB tl-theme__dark" style="background-color: rgb(16, 16, 17);"><defs/><g transform="matrix(1, 0, 0, 1, 632, 310.2)" opacity="1"><g transform="scale(1)"><path d="M-3.2549,0 T-3.2356,-1.2837 -2.9485,-4.4704 -2.6084,-8.2231 -2.526,-11.864 -2.5084,-15.6905 -2.5253,-19.1732 -2.5434,-22.6389 -2.4873,-26.149 -2.4439,-29.6393 -2.6005,-33.029 -3.5601,-36.1988 -4.9635,-39.4562 -6.966,-43.6971 -9.4375,-48.2669 -11.5217,-52.1516 -13.178,-55.5005 -14.8328,-58.5171 -17.7134,-61.9721 -21.1188,-64.8534 -24.1575,-67.3622 -26.8346,-69.596 -30.3233,-71.8978 -34.7004,-74.0854 -38.6217,-76.0828 -42.3795,-78.6866 -46.3631,-81.589 -50.3666,-84.0934 -53.7723,-85.9718 -56.6115,-87.6434 -60.0201,-89.563 -63.8556,-91.7339 -67.4997,-93.5744 -71.3671,-94.9913 -76.044,-96.5457 -80.2506,-97.9924 -83.7184,-98.8153 -87.8133,-99.7196 -91.8743,-100.5161 -95.8799,-100.7867 -100.2259,-101.0527 -104.3373,-101.839 -108.9405,-103.2225 -113.1722,-104.2981 -116.8007,-104.742 -120.8051,-104.8981 -124.1761,-104.8487 -127.3518,-105.1668 -130.2678,-106.705 -131.4966,-107.8917 A3.3469,3.3469 0 0 1 -125.739,-111.3059 T-125.0279,-111.209 -122.8385,-111.0428 -119.8798,-110.8363 -116.1029,-110.4111 -111.8281,-109.8472 -107.2623,-108.8583 -103.0702,-107.7877 -99.6302,-107.2245 -95.5669,-106.9174 -90.8602,-106.4839 -86.5262,-105.5721 -82.4104,-104.5102 -78.481,-103.5783 -75.1756,-102.6406 -71.4989,-101.5284 -67.9783,-100.3568 -64.481,-98.8507 -60.6828,-96.772 -57.0619,-94.545 -53.7318,-92.6563 -49.9284,-90.6858 -46.3705,-88.7221 -43.5234,-86.9525 -40.5251,-84.7349 -37.3984,-82.3188 -34.1119,-80.3507 -31.1799,-78.9295 -28.3868,-77.4969 -25.8016,-75.9445 -23.072,-74.0923 -20.2127,-71.7236 -17.2979,-69.0299 -14.6954,-66.6295 -11.9675,-63.2405 -9.133,-58.7825 -6.9598,-55.0095 -4.4183,-51.4851 -1.9208,-48.1686 -0.1208,-45.1001 1.1432,-42.1624 2.6327,-38.6299 3.8356,-34.0555 4.0435,-29.6389 4.0864,-26.148 4.1411,-22.6348 4.1173,-19.1609 4.0815,-15.6529 4.0352,-11.7537 3.9016,-7.7595 3.5118,-4.0745 3.2356,-1.2699 3.2549,0 A3.2549,3.2549 0 0 1 -3.2549,0 ZM-130.5468,-112.3339 T-130.1601,-112.6345 -129.7734,-112.9352 A3.3925,3.3925 0 0 1 -125.8627,-107.3906 T-126.2757,-107.1272 -126.6887,-106.8638 A3.3469,3.3469 0 0 1 -130.5468,-112.3339 ZM-130.5204,-112.2137 T-129.6339,-113.4032 -126.8819,-115.6401 -123.6315,-117.8367 -120.9435,-119.6668 -117.5384,-121.3531 -113.754,-123.4277 -110.7027,-124.942 -106.5077,-126.3974 -102.0389,-127.9335 -98.8754,-128.9732 -95.2201,-130.0511 -91.2959,-130.9521 -86.7216,-131.7601 -81.8485,-132.4064 -78.3371,-132.5944 -74.0797,-132.8576 -69.4035,-133.1054 -65.3919,-133.2029 -61.5371,-133.3711 -57.3696,-133.1625 -52.5107,-132.6155 -47.0191,-132.066 -41.9652,-131.5035 -38.5434,-131.1047 -34.9554,-130.4629 -31.1848,-129.7001 -27.9119,-129.1533 -24.262,-128.4191 -20.0656,-127.3536 -16.074,-126.2227 -12.0426,-124.8174 -8.1657,-123.3092 -5.0109,-122.2462 -1.8032,-121.1229 1.6014,-119.4971 5.7166,-117.7729 10.4328,-116.2098 15.2697,-114.6982 20.0658,-113.2329 23.8587,-112.2992 27.1902,-111.8756 31.5873,-110.9328 35.5701,-109.847 38.7566,-108.9654 42.1662,-108.0505 45.2006,-107.2985 48.7499,-106.3211 52.7244,-104.8515 56.1878,-103.4408 59.3408,-102.0266 62.2361,-100.5409 64.7534,-98.9532 67.3592,-97.277 69.9803,-95.7734 73.1375,-93.7879 77.2349,-91.7246 80.6153,-90.1598 84.0332,-89.0385 87.1927,-88.6338 88.1641,-88.6087 A3.7832,3.7832 0 0 1 87.5272,-81.0691 T84.7772,-81.4937 80.3046,-82.1826 77.1836,-83.536 74.2428,-85.4335 71.0083,-87.2603 67.1023,-89.4416 63.1646,-91.6217 60.2622,-93.5569 56.9793,-95.4723 53.2707,-97.2102 50.0548,-98.7199 46.6663,-100.0802 42.7498,-101.3602 38.8964,-102.5418 34.9547,-103.6141 31.3307,-104.5064 28.0583,-105.2842 24.4956,-105.9503 20.5438,-106.7224 16.6888,-108.0771 13.7965,-109.3658 10.7445,-110.6291 6.4767,-112.3483 2.42,-113.94 -0.4051,-115.3977 -3.3742,-116.8689 -6.518,-118.0859 -9.6743,-119.3131 -13.3749,-120.6736 -17.2377,-121.8592 -21.0515,-122.8086 -25.168,-123.5556 -28.7521,-124.1413 -32.071,-124.6797 -35.7238,-125.2412 -39.0756,-125.6925 -42.3755,-125.9621 -46.1764,-126.0657 -49.7691,-126.141 -53.3054,-126.5218 -57.5894,-127.0585 -61.4774,-127.3755 -65.2481,-127.4168 -69.114,-127.2997 -72.3318,-127.044 -76.6008,-126.6449 -81.3277,-126.2767 -85.6976,-125.6931 -90.079,-124.919 -93.6859,-124.2809 -96.7965,-123.3737 -100.0639,-122.0218 -103.7085,-120.6332 -107.7122,-119.0226 -112.2007,-116.5012 -116.3413,-114.0486 -119.3339,-112.2149 -122.2484,-110.4332 -124.5555,-108.8288 -125.1156,-108.1121 A3.3925,3.3925 0 0 1 -130.5204,-112.2137 ZM84.5254,-83.0254 T84.287,-83.6432 82.8995,-86.0861 80.3189,-89.4673 77.7313,-92.2405 75.0312,-95.2143 71.5658,-98.6445 68.4968,-101.3163 66.2755,-103.2825 63.3575,-105.9974 59.6432,-109.1746 56.7044,-111.515 53.5918,-113.9231 49.1518,-116.7427 45.3004,-118.8553 42.3318,-120.4585 39.5061,-121.8477 36.5685,-123.1505 33.641,-124.4312 30.1032,-126.1655 26.5862,-127.9902 23.8292,-129.3337 20.8612,-130.4651 17.7661,-131.6426 14.0623,-133.1468 10.4573,-134.5523 6.7227,-136.1991 3.2561,-137.9596 0.6625,-139.4391 -2.9371,-141.2792 -6.6863,-142.9328 -9.9022,-143.8652 -14.0208,-144.5724 -18.7723,-145.7486 -22.8657,-146.6611 -26.2361,-146.913 -27.8547,-147.1203 A3.6745,3.6745 0 0 1 -26.8112,-154.3949 T-24.8022,-154.1855 -21.2049,-153.8151 -18.4009,-152.9054 -15.6015,-151.8758 -12.438,-151.5003 -8.8843,-150.9446 -5.1276,-149.9484 -2.052,-148.561 0.6433,-147.145 3.5282,-145.803 6.2023,-144.2617 8.5823,-142.7429 11.6386,-141.3144 15.4578,-139.8459 19.1408,-138.0891 22.4519,-136.5637 25.2526,-135.3202 27.9088,-133.8133 30.9145,-131.9685 34.7433,-129.8802 38.7055,-128.1455 41.8652,-126.8465 44.8832,-125.4646 47.9624,-123.9858 50.9124,-122.5365 53.7262,-121.0567 56.3327,-119.4371 59.522,-117.0588 62.695,-114.6699 65.7284,-112.2368 69.4633,-109.0109 73.6031,-105.6202 77.0157,-103.0064 79.9809,-100.3378 82.9971,-97.3151 85.5143,-94.7204 88.0563,-91.5195 90.2409,-88.1644 91.1658,-86.6524 A3.7832,3.7832 0 0 1 84.5254,-83.0254 ZM-28.7682,-154.1402 T-27.0047,-154.8419 -22.9378,-156.0714 -19.1733,-156.6925 -15.4406,-156.851 -10.6171,-156.8909 -5.44,-156.82 -0.4321,-156.7668 4.3458,-156.7519 9.6867,-156.6698 14.1299,-156.5727 18.4595,-156.532 23.8633,-156.342 27.856,-156.0575 30.9848,-155.8407 35.9319,-155.4586 40.8084,-154.8688 44.0436,-154.2002 47.3854,-153.442 50.5549,-152.6572 54.6103,-151.6049 60.0847,-150.2195 66.3644,-148.7027 73.0312,-146.8787 79.0153,-145.1266 84.0195,-143.8026 88.0822,-142.7552 91.3028,-141.913 94.9791,-140.8421 98.7896,-139.6558 102.8314,-138.2231 107.3078,-136.3772 111.097,-134.8226 114.3856,-133.6798 117.3828,-132.8872 120.3624,-132.1234 123.3489,-130.7245 126.4534,-129.0393 129.818,-127.1867 133.0976,-125.1823 135.8538,-123.667 138.7061,-122.3429 142.095,-120.3402 145.6213,-117.8697 148.7996,-115.9271 151.6833,-114.3747 154.6892,-112.8037 157.7796,-111.2211 161.043,-109.6286 164.2153,-108.2628 166.618,-106.6228 168.9424,-104.5932 171.3693,-102.3834 173.7349,-99.9128 175.9835,-97.3351 177.9574,-94.7392 180.2556,-92.1497 183.3638,-89.3689 186.264,-86.8742 188.5189,-85.0751 190.206,-82.8493 190.7752,-79.5164 191.2338,-76.286 192.5495,-73.4883 194.0384,-70.5761 195.0822,-67.7469 195.9895,-65.0081 196.8763,-62.0822 197.8574,-59.0578 198.9114,-55.7487 199.9484,-52.4122 200.784,-49.2398 201.1922,-45.6802 201.5556,-42.2617 201.9264,-39.2862 202.301,-36.3123 203.0405,-32.7853 203.5662,-29.3381 203.6451,-26.4451 203.6602,-22.9706 203.6615,-19.0569 203.6696,-15.5349 203.6874,-12.3663 203.702,-9.2252 203.7226,-5.9061 203.741,-2.633 203.7493,0.351 203.7356,3.881 203.7044,7.4176 204.1288,10.8556 204.7984,14.6433 205.1011,17.8653 205.3032,22.4383 205.4752,27.9811 205.515,32.5742 205.5637,36.5009 205.6643,41.2589 205.71,46.0442 205.6799,49.672 205.6537,53.2873 205.659,56.7129 205.6758,60.0358 205.7154,63.1202 205.7366,66.2802 205.728,67.9992 A2.528,2.528 0 0 1 200.672,68.0008 T200.6623,66.2819 200.6815,63.1223 200.7185,60.0393 200.7305,56.7192 200.727,53.2983 200.6847,49.6927 200.6249,46.0821 200.551,41.3721 200.4319,36.7225 200.1416,32.9572 199.5584,28.7751 198.5624,23.1115 197.8229,17.781 197.3185,14.1516 196.6148,10.6072 196.2956,7.4467 196.2644,3.881 196.2507,0.351 196.259,-2.633 196.2774,-5.9061 196.298,-9.2252 196.3125,-12.366 196.33,-15.534 196.3357,-19.0512 196.3241,-22.3579 196.2916,-25.7036 196.1826,-29.2397 195.6451,-32.513 194.9144,-35.8461 194.5766,-38.9749 194.1806,-42.5467 193.7598,-46.1144 193.2097,-49.1436 191.9581,-52.9111 190.7167,-56.579 189.5948,-60.2645 188.5491,-64.0005 187.3152,-67.2599 185.7218,-70.5206 184.6608,-73.4633 184.204,-77.2138 182.6831,-80.9274 179.9161,-83.3683 177.1541,-85.8422 174.6415,-88.3382 172.1994,-91.0768 170.1963,-93.9752 168.2405,-96.6773 165.5878,-99.5616 162.5729,-102.4656 158.9644,-105.0885 155.5969,-107.0112 152.4647,-108.6408 149.3968,-110.2924 146.48,-111.9816 143.0192,-113.9861 139.7059,-116.0888 136.5573,-117.7986 133.4276,-119.2755 130.5519,-120.8973 127.5023,-122.6478 123.9267,-124.3447 119.8518,-126.2488 115.955,-127.9102 112.7991,-129.0186 109.369,-130.1378 105.5017,-131.3999 102.0427,-132.5982 98.5547,-133.9593 95.202,-135.7558 91.2536,-137.5667 87.0876,-138.9319 83.0779,-139.9694 77.9373,-141.1367 71.9787,-142.6229 65.4098,-144.0694 58.759,-145.2116 54.2422,-146.1738 50.476,-147.2581 46.2776,-148.247 42.9665,-148.9045 40.0071,-149.4972 35.5489,-149.9435 30.713,-150.1248 27.2181,-150.2144 23.411,-150.4931 18.4596,-150.6679 14.1301,-150.6271 9.6875,-150.5295 4.3486,-150.4457 -0.4243,-150.4249 -4.3117,-150.3622 -8.2663,-150.2573 -12.9242,-150.1253 -17.2218,-149.8676 -21.3042,-149.1288 -24.5992,-147.9725 -25.8977,-147.375 A3.6745,3.6745 0 0 1 -28.7682,-154.1402 Z" stroke-linecap="round" fill="#4f72fc"/></g></g><g transform="matrix(1, 0, 0, 1, 835.2, 378.2)" opacity="1"><g transform="scale(1)"><path d="M3.1843,-0.3538 T3.3051,1.2945 3.6445,4.4809 4.155,8.1487 4.5666,11.8837 5.1973,14.9931 6.022,18.1528 6.4274,21.2673 6.9035,24.1959 7.3611,27.2473 7.4775,30.5635 7.7482,34.4834 8.0383,38.9471 8.1462,42.6548 8.2342,45.7022 8.2991,49.2585 8.3097,53.3988 8.2291,58.1605 8.0837,62.3802 7.918,65.8548 7.819,70.3046 7.8163,75.4089 7.7601,79.6389 7.6694,84.3534 7.64,88.7421 7.6277,91.6844 7.919,95.6526 8.3289,100.7292 8.4485,104.7734 8.5089,108.4223 8.6175,112.1409 9.181,115.4562 9.9732,118.5453 10.2614,119.817 A3.2829,3.2829 0 0 1 3.8045,121.0082 T3.4183,119.1391 2.7743,115.4731 2.5679,112.1752 2.6417,108.4707 2.6267,103.6486 2.4637,98.5167 2.1603,94.6027 1.9723,91.6894 1.96,88.7421 1.9306,84.3534 1.8399,79.6389 1.7837,75.4089 1.781,70.3046 1.682,65.8549 1.5162,62.3803 1.3708,58.1606 1.2816,53.9475 1.2837,50.5134 1.3283,46.9656 1.3543,43.3005 1.2524,39.3016 0.8066,34.7764 0.4754,30.686 0.4373,27.4227 0.0852,24.3965 -0.2887,21.2975 -0.6949,18.2231 -1.318,15.2896 -1.6243,12.2881 -1.8258,8.9269 -2.3517,5.3308 -2.9403,1.9887 -3.1843,0.3538 A3.2039,3.2039 0 0 1 3.1843,-0.3538 ZM8.3134,117.3896 T9.0689,117.6956 11.4913,118.0702 14.9069,118.1572 18.6512,118.1557 22.3643,118.1097 25.5184,118.0576 28.391,118.0136 31.3695,118.2985 34.2868,118.9276 37.8645,120.3344 40.9903,122.5758 43.2405,125.4558 44.8675,128.73 45.2316,131.9875 44.5447,135.8403 42.6407,139.3822 40.3364,141.6222 37.6719,143.1426 34.9549,144.6523 31.9541,146.0362 28.6682,147.2308 25.4557,148.1151 22.2899,148.5893 18.9569,149.1081 15.339,149.7013 11.4326,150.6364 7.3345,151.8407 3.5368,152.6378 0.1243,153.2529 -3.4797,153.7468 -7.2689,154.1362 -10.8148,154.6637 -14.2036,155.1055 -17.1863,155.6348 -20.5045,156.124 -24.0931,156.5897 -27.6896,157.0223 -31.8998,157.1595 -36.1453,157.1372 -39.6876,157.1151 -43.1722,157.1345 -47.7435,156.4641 -51.6512,153.9199 -53.3615,150.7338 -54.2167,147.7219 -54.6947,144.4041 -54.8181,141.3248 -54.8431,138.2782 -54.8726,135.2564 -54.8697,131.6211 -54.8438,127.8823 -54.8368,124.3884 -54.8057,120.455 -54.7571,116.688 -54.73,113.1218 -54.7209,109.8134 -54.7469,106.6831 -55.0338,103.0918 -55.4509,99.5058 -55.8911,95.9212 -56.2968,92.4907 -56.6957,89.3467 -57.4446,86.1631 -58.0156,83.2684 -58.1325,80.3185 -58.1492,77.162 -58.4804,74.0944 -60.2772,73.4327 -63.0122,74.8665 -66.0857,76.3325 -69.0555,78.0666 -71.8802,79.6836 -75.0302,81.6501 -78.341,83.9071 -81.6082,85.6602 -84.5834,87.5466 -87.6464,89.2202 -90.8146,89.9648 -94.289,90.4915 -98.311,90.9175 -100.4932,90.9935 A3.8058,3.8058 0 0 1 -100.6577,83.3836 T-98.6404,83.3432 -94.3668,82.924 -90.7366,82.1641 -87.7504,80.6007 -84.3088,78.5466 -81.169,76.9634 -78.5039,75.044 -75.5332,73.0366 -72.6985,71.4123 -69.7172,69.7251 -66.3751,68.1243 -63.3398,66.9971 -60.4252,66.6128 -57.5223,66.7216 -54.4659,67.559 -52.0824,70.304 -50.9814,74.3865 -50.648,78.1114 -50.8018,81.4839 -50.3436,84.7577 -49.4023,87.8778 -48.9632,91.2657 -48.5864,94.9921 -48.2344,98.5669 -47.8879,102.6699 -47.6531,106.6831 -47.6791,109.8134 -47.67,113.1218 -47.6429,116.688 -47.5943,120.455 -47.5632,124.3884 -47.5561,127.8822 -47.53,131.6201 -47.5256,135.2518 -47.5459,138.2507 -47.5345,141.5953 -47.3577,145.0162 -46.6166,148.3538 -44.2801,150.0501 -41.1094,150.0759 -38.0919,150.082 -34.2822,150.0275 -30.3567,149.9581 -27.2396,149.8352 -23.6772,149.4633 -20.1161,149.0531 -16.3107,148.4994 -11.4303,147.7404 -6.6568,147.1521 -2.538,146.8555 1.2719,146.5022 4.9456,145.8328 8.0333,145.2101 10.843,144.5254 13.9842,143.6054 17.5108,142.6116 22.2507,141.4608 27.3475,140.0472 30.7749,138.5059 33.8227,137.0684 36.7279,135.095 37.9116,131.9748 36.9376,128.5953 34.3706,126.4536 31.2948,125.5397 27.9213,125.1778 24.4417,125.1261 20.981,125.0727 17.1244,125.0018 13.0702,124.9252 9.6186,124.6934 6.9707,123.9656 5.7525,123.4355 A3.2829,3.2829 0 0 1 8.3134,117.3896 ZM-97.0261,88.562 T-97.3064,89.2243 -97.6826,91.5716 -97.826,95.0452 -97.9164,98.7771 -97.9668,102.2399 -97.9845,105.9776 -98.0076,109.8998 -98.0387,113.417 -98.0849,117.2741 -98.1159,121.0494 -98.132,124.7013 -98.1431,128.3166 -98.1226,132.1093 -98.0892,136.2769 -98.0609,140.3579 -98.0364,144.3169 -98.0716,148.3509 -98.1144,152.0145 -98.1086,155.1853 -98.0887,158.6233 -98.06,162.4428 -98.0294,166.049 -97.9929,169.2312 -96.4964,170.7388 -93.0767,170.7146 -89.6505,170.6174 -86.3337,170.2474 -82.8849,169.7082 -79.6216,169.2813 -76.444,168.863 -72.9543,168.4595 -69.1451,168.3179 -65.0813,168.6125 -61.4254,169.6834 -58.5526,171.3934 -55.695,173.2507 -53.0692,175.3166 -50.499,178.1573 -49.2989,182.7178 -50.7033,187.4306 -53.4341,190.835 -56.3582,192.9961 -59.3068,194.5009 -62.3115,196.0702 -65.465,197.4876 -69.094,198.625 -73.484,199.442 -77.686,200.0381 -81.3939,200.3985 -85.1099,200.7864 -89.3764,201.321 -94.395,201.9697 -98.7328,202.6453 -102.1999,203.4238 -106.3564,203.9312 -110.2472,204.2249 -113.2248,204.7229 -116.492,205.3286 -120.2599,205.7345 -124.3042,205.8782 -128.072,205.9323 -131.648,205.9851 -134.952,205.6916 -138.295,205.0108 -141.6003,204.575 -144.6028,204.2248 -147.9259,203.2592 -150.9626,201.5043 -154.1036,199.3347 -157.3894,196.5368 -159.7079,193.5236 -161.4956,190.4625 -162.8985,186.9608 -163.4721,185.1954 A3.6721,3.6721 0 0 1 -156.5279,182.8046 T-155.9383,184.5507 -154.6132,187.6626 -152.8337,190.6402 -150.4032,193.2008 -147.5785,195.3779 -144.5219,196.8823 -141.3942,197.2611 -137.9905,197.7996 -133.9177,198.5242 -130.2616,198.836 -126.8115,198.8719 -123.0197,198.8898 -119.5785,198.8201 -116.3638,198.3796 -112.792,197.7061 -108.7453,197.3158 -105.2114,197.0834 -101.9327,196.5241 -97.8852,195.6791 -94.1716,194.9371 -91.0469,194.324 -87.805,193.9436 -84.1371,193.5434 -80.258,193.1492 -76.7489,192.8413 -72.6576,191.9469 -68.9691,190.7788 -65.921,189.482 -62.4724,187.7717 -59.4886,186.2171 -56.9452,184.4653 -57.1482,181.5901 -60.1421,178.9788 -63.1104,177.2966 -65.9063,176.0926 -69.0182,175.7275 -72.2607,175.8228 -75.129,176.2059 -78.2652,176.5925 -81.6404,177.0003 -84.7594,177.4478 -88.7024,177.8151 -93.116,178.069 -97.0431,178.0375 -100.555,177.7435 -103.5972,175.698 -105.1532,172.3448 -105.2071,169.2312 -105.1706,166.049 -105.14,162.4428 -105.1113,158.6233 -105.0914,155.1853 -105.0856,152.0145 -105.1284,148.3509 -105.1636,144.3169 -105.1391,140.3579 -105.1108,136.2769 -105.0774,132.1093 -105.0569,128.3166 -105.068,124.7013 -105.0841,121.0494 -105.1151,117.2741 -105.1613,113.4169 -105.1923,109.8995 -105.2147,105.976 -105.2302,102.2351 -105.2734,98.7614 -105.3282,94.4144 -105.1763,90.1193 -104.5658,87.017 -104.1248,85.8151 A3.8058,3.8058 0 0 1 -97.0261,88.562 Z" stroke-linecap="round" fill="#4f72fc"/></g></g><g transform="matrix(1, 0, 0, 1, 675.2, 562.2)" opacity="1"><g transform="scale(1)"><path d="M-3.3279,0 T-3.3041,-1.2768 -3.2924,-4.3717 -3.3432,-8.2668 -3.1691,-12.2487 -2.609,-16.3599 -1.869,-20.1476 -1.0517,-23.221 -0.5159,-26.2455 -0.391,-29.3452 0.1005,-33.0118 0.8626,-37.0961 1.2236,-40.6358 1.2983,-43.7577 1.2794,-47.0386 1.2606,-50.2603 1.2452,-53.672 0.8827,-57.6902 0.1448,-61.8488 -0.244,-63.8929 A3.6401,3.6401 0 0 1 6.9241,-65.1656 T7.0058,-64.5045 7.4057,-62.136 8.0449,-58.6772 8.353,-55.1289 8.3393,-51.7804 8.3219,-48.1825 8.2546,-44.6735 8.1356,-41.6966 7.8993,-38.0015 7.2466,-33.7453 6.7176,-30.1896 6.492,-26.6397 5.905,-23.0635 4.9752,-19.292 4.2022,-15.5178 3.6676,-12.176 3.3432,-8.2668 3.2924,-4.3717 3.3041,-1.2768 3.3279,0 A3.3279,3.3279 0 0 1 -3.3279,0 ZM0.8567,-61.8677 T-0.1406,-62.8318 -1.8085,-65.6537 -2.9686,-68.9395 -3.5712,-71.8484 -3.934,-75.7162 -4.2661,-79.7727 -4.6956,-82.8446 -5.3198,-85.7996 -5.7145,-89.4266 -6.0615,-92.7286 -6.291,-93.9567 A3.5898,3.5898 0 0 1 0.7965,-95.1026 T1.0685,-92.7436 1.7766,-88.1744 2.5521,-83.8655 2.9788,-80.3115 3.3891,-76.9395 3.7758,-72.9975 4.2389,-69.6011 5.2308,-67.7102 5.8234,-67.1907 A3.6401,3.6401 0 0 1 0.8567,-61.8677 ZM-1.759,-91.0786 T-1.8612,-91.0453 -1.9634,-91.012 A3.5975,3.5975 0 0 1 -3.944,-97.929 T-3.8397,-97.9549 -3.7354,-97.9807 A3.5898,3.5898 0 0 1 -1.759,-91.0786 ZM0.5079,-93.4911 T0.4576,-93.291 0.4073,-93.0908 A3.6097,3.6097 0 0 1 -6.5393,-95.0563 T-6.4773,-95.2531 -6.4153,-95.45 A3.5975,3.5975 0 0 1 0.5079,-93.4911 ZM-0.209,-91.8673 T-0.7562,-91.3015 -2.4935,-89.5543 -5.0858,-87.7028 -8.2799,-86.2596 -11.362,-84.8832 -14.3271,-83.7161 -17.4969,-82.4972 -21.0343,-81.311 -24.9043,-80.306 -28.24,-79.2424 -32.0312,-78.4523 -36.0173,-78.1955 -39.2642,-78.1187 -42.7396,-78.0765 -46.208,-78.0534 -49.7866,-78.0427 -54.2091,-78.1009 -58.7182,-78.1902 -62.8849,-78.2224 -67.4132,-78.4669 -71.4531,-78.8617 -74.5973,-79.1296 -77.7893,-79.3082 -81.6618,-79.3766 -85.5517,-79.3313 -88.652,-79.2252 -91.9033,-79.1424 -95.629,-79.0789 -99.346,-78.9971 -102.6546,-78.9552 -105.9691,-78.5946 -109.8952,-77.7876 -114.8966,-77.0789 -119.1591,-76.8137 -122.9912,-76.7925 -127.5239,-76.7669 -131.9622,-76.7664 -136.1237,-76.4933 -139.7795,-75.8481 -143.7462,-75.3552 -147.9956,-75.0426 -152.4796,-74.5547 -156.5909,-73.7532 -159.7027,-72.7367 -162.7437,-71.7612 -164.3907,-71.3084 A3.3849,3.3849 0 0 1 -165.8092,-77.928 T-164.225,-78.4006 -161.1958,-79.2129 -157.9276,-80.0248 -153.5834,-80.8793 -149.5863,-81.4944 -146.3678,-81.7662 -142.9073,-81.9661 -138.9869,-82.473 -134.4888,-83.0225 -129.9582,-83.2433 -125.5408,-83.2881 -120.7324,-83.4493 -116.2155,-83.8065 -112.4437,-84.594 -108.9344,-85.2139 -105.787,-85.5595 -102.6857,-85.8448 -99.3459,-85.8028 -95.6285,-85.7208 -91.8999,-85.6563 -88.6374,-85.5676 -85.5151,-85.4418 -81.5833,-85.3326 -77.6359,-85.293 -74.3107,-85.3048 -70.8397,-85.2663 -66.9864,-85.0979 -62.8849,-84.9776 -58.7182,-85.0098 -54.2093,-85.0993 -49.7881,-85.158 -46.2138,-85.1495 -42.7748,-85.1393 -39.3682,-85.1411 -36.334,-85.2064 -32.6103,-85.4859 -28.342,-86.4211 -24.0334,-87.8443 -20.3856,-89.0876 -17.2349,-90.2485 -13.3057,-91.7896 -9.3849,-93.2222 -6.7912,-95.0127 -5.923,-96.2798 A3.6097,3.6097 0 0 1 -0.209,-91.8673 ZM-168.2679,-73.4259 T-168.8212,-74.9644 -168.7683,-79.1467 -167.2977,-83.7361 -165.6294,-87.6027 -164.203,-90.8894 -162.6057,-94.7495 -160.7748,-99.7842 -159.6215,-104.4992 -158.7591,-108.9559 -157.7622,-113.3662 -157.1443,-117.2047 -156.9355,-120.6984 -156.9282,-123.9433 -157.4579,-127.0312 -158.5292,-130.0413 -159.7932,-132.9743 -160.5004,-134.5238 A3.5363,3.5363 0 0 1 -153.9964,-137.3022 T-153.542,-136.1323 -152.427,-133.6631 -151.4966,-130.9892 -150.7448,-128.1411 -150.2864,-125.2488 -150.4153,-121.7879 -150.7114,-118.0111 -151.3797,-114.0294 -152.5602,-108.9505 -153.6649,-103.3538 -154.4785,-99.1113 -155.7591,-95.0833 -157.1153,-91.1624 -158.5219,-87.4574 -160.2558,-83.1546 -161.863,-79.3919 -162.2939,-76.7041 -161.9319,-75.8105 A3.3849,3.3849 0 0 1 -168.2679,-73.4259 ZM-158.0979,-132.4803 T-158.1789,-132.4968 -158.2599,-132.5133 A3.5432,3.5432 0 0 1 -156.5576,-139.3921 T-156.4783,-139.3689 -156.3989,-139.3457 A3.5363,3.5363 0 0 1 -158.0979,-132.4803 ZM-153.8723,-135.735 T-153.9275,-134.6929 -153.9981,-131.64 -154.0014,-127.9635 -153.9843,-124.3519 -153.9765,-120.4146 -153.9707,-116.4786 -153.9581,-112.8246 -153.9409,-109.3983 -153.9616,-105.8382 -154.0151,-102.1246 -154.0795,-98.3165 -154.7335,-95.0207 -156.5868,-90.8882 -158.411,-86.5241 -159.6363,-82.7413 -160.9101,-79.0223 -162.5906,-75.0488 -164.0353,-70.8124 -164.9654,-67.4314 -165.593,-63.9657 -165.8841,-59.8635 -166.1324,-55.7412 -166.1758,-51.8313 -165.8107,-48.4607 -165.1041,-46.1673 -164.753,-45.2284 A3.5557,3.5557 0 0 1 -171.5457,-43.1233 T-171.9965,-45.0275 -172.7341,-48.3397 -172.9997,-51.2383 -172.9312,-54.1728 -172.8202,-57.9406 -172.6754,-61.7671 -172.3603,-65.1534 -171.6857,-68.4175 -170.9655,-71.4599 -169.5715,-74.8932 -167.9398,-78.1852 -166.7515,-81.1375 -165.4355,-84.6464 -164.2811,-88.6787 -163.2177,-92.1624 -161.9242,-95.8558 -161.173,-99.9146 -161.2049,-103.9056 -161.254,-108.031 -161.2494,-111.719 -161.2371,-115.3484 -161.2262,-119.1315 -161.2178,-122.3494 -161.2092,-125.6612 -161.1781,-129.3206 -161.13,-132.4761 -161.0247,-135.0248 -160.9452,-136.1704 A3.5432,3.5432 0 0 1 -153.8723,-135.735 ZM-166.1931,-47.145 T-165.2879,-46.5623 -163.1787,-44.3224 -160.4287,-41.3896 -157.8532,-39.1049 -155.656,-36.9607 -153.2602,-34.3073 -150.6184,-31.007 -147.9294,-28.2142 -145.216,-25.6583 -142.1303,-23.0221 -139.1893,-21.349 -136.1621,-19.9558 -132.7956,-18.4796 -129.3989,-17.5368 -125.7895,-16.8572 -122.1284,-16.3451 -118.6011,-16.2107 -114.8056,-16.1647 -111.2574,-16.1623 -107.9595,-16.2151 -104.376,-16.5263 -101.1124,-17.2053 -96.7981,-17.5962 -93.9974,-17.5859 A3.6109,3.6109 0 0 1 -95.0164,-10.4364 T-96.2116,-10.5671 -98.9759,-10.3286 -102.0828,-9.6442 -105.4307,-9.3526 -109.2776,-9.4109 -113.0125,-9.4642 -116.5978,-9.5021 -120.7973,-9.5724 -125.1157,-9.9065 -128.9936,-10.5587 -133.1972,-11.656 -137.1335,-13.0446 -140.5204,-14.4638 -144.2284,-16.2646 -147.5493,-18.258 -149.8794,-20.2757 -152.1612,-22.4347 -155.0237,-25.4044 -158.2673,-29.2069 -161.1119,-32.1748 -163.214,-34.3495 -165.7212,-36.6682 -167.9829,-39.0616 -169.4144,-40.7375 -170.1056,-41.2066 A3.5557,3.5557 0 0 1 -166.1931,-47.145 ZM-90.9629,-14.7027 T-90.6387,-12.9668 -90.4009,-8.6508 -91.5452,-4.1995 -93.9929,-1.1826 -97.1249,0.9778 -100.2817,2.6639 -103.5967,4.1433 -107.3805,5.9289 -110.9458,7.7805 -113.9564,9.0976 -116.7296,9.7278 -120.0558,10.2969 -124.1835,11.3738 -128.1091,12.2044 -131.2085,12.3742 -134.4636,12.3964 -137.8672,12.3802 -140.844,12.3796 -144.0666,12.3958 -147.752,12.4164 -152.048,12.1375 -156.3466,11.1289 -160.5589,9.0861 -164.6282,6.6388 -167.5932,4.6925 -170.1858,2.6504 -172.9074,0.041 -175.3163,-2.4241 -177.5107,-4.5551 -180.4826,-7.2759 -183.9594,-10.23 -187.4914,-13.0314 -190.4253,-15.5294 -192.8805,-17.9163 -195.6938,-20.9551 -198.2581,-24.0231 -201.2085,-27.4944 -204.1472,-30.6546 -206.5316,-32.8615 -209.1228,-34.9027 -211.9739,-36.7257 -215.2475,-38.4282 -218.4424,-39.4841 -221.5491,-40.4688 -224.9221,-42.6615 -227.9471,-45.0832 -230.3923,-47.3538 -232.1393,-50.0098 -233.2406,-53.3327 -233.8289,-57.0269 -234.2287,-60.4692 -234.9366,-64.4142 -235.4731,-68.2601 -236.0246,-71.4961 -236.7576,-74.5214 -237.1138,-77.5151 -237.5863,-80.9118 -238.3589,-84.1669 -238.7868,-87.0444 -238.8594,-90.4343 -238.8811,-94.0472 -238.893,-97.4126 -238.899,-100.8224 -238.8999,-104.2925 -238.8908,-108.6435 -238.8851,-111.2 A3.6851,3.6851 0 0 1 -231.5149,-111.2 T-231.5094,-109.2621 -231.498,-105.436 -231.4968,-101.9069 -231.4999,-98.4123 -231.5084,-95.1299 -231.5025,-91.7546 -231.4105,-87.8881 -230.9784,-84.303 -230.2704,-81.0638 -229.8265,-77.8802 -229.3421,-74.9005 -228.6081,-71.8467 -228.1864,-68.7554 -227.7723,-65.8399 -227.1161,-62.9503 -226.7822,-59.8535 -226.6741,-56.4577 -225.9872,-53.3913 -224.3074,-50.997 -222.1072,-48.9792 -219.3662,-47.088 -215.9432,-45.6921 -212.4607,-44.3553 -209.389,-42.59 -206.3016,-40.5195 -203.4935,-38.2523 -201.195,-35.9397 -198.6914,-32.8943 -196.3136,-29.982 -194.1519,-27.6912 -191.6952,-25.155 -188.0173,-21.9832 -184.279,-19.1978 -181.193,-16.9277 -177.8408,-14.1287 -174.9205,-11.7917 -172.4962,-9.8065 -170.0135,-7.3677 -167.6949,-4.9237 -165.1968,-2.5836 -162.4996,-0.5215 -159.7413,1.4565 -156.8415,3.1457 -153.8085,4.4224 -150.2244,5.1811 -146.5388,5.19 -142.7846,5.2085 -139.2162,5.2063 -136.1137,5.1866 -132.981,5.1428 -129.5791,5.0009 -126.2481,4.4796 -122.786,3.6851 -119.0075,2.9127 -115.6488,2.097 -112.691,0.9078 -109.7479,-0.7944 -106.5147,-2.4724 -103.348,-3.9145 -99.8679,-5.8077 -97.6175,-8.6227 -97.7366,-11.7834 -98.0509,-13.3195 A3.6109,3.6109 0 0 1 -90.9629,-14.7027 Z" stroke-linecap="round" fill="#4f72fc"/></g></g><g transform="matrix(1, 0, 0, 1, 440, 451)" opacity="1"><g transform="scale(1)"><path d="M-2.9347,1.7608 T-3.4733,0.8417 -4.9965,-2.0393 -6.3116,-5.7743 -7.2809,-9.5367 -8.107,-12.931 -8.3526,-16.0163 -8.4279,-19.4081 -8.4561,-22.7379 -8.475,-26.0133 -8.4962,-29.5373 -8.1758,-33.5765 -7.7241,-37.7134 -7.565,-41.4115 -6.9518,-44.5152 -5.9711,-47.8388 -5.4065,-51.4599 -4.8211,-54.8595 -2.9929,-59.2883 -0.9324,-63.2157 0.69,-66.3287 2.7911,-70.7118 4.7308,-75.1156 6.0116,-79.0149 7.4042,-83.4333 9.2087,-87.6006 10.511,-90.8021 8.5882,-94.7321 4.5503,-98.7496 1.4703,-101.4818 -1.4918,-104.0624 -4.5843,-107.0208 -7.6627,-109.8785 -11.1244,-113.1069 -14.7493,-117.0091 -17.8082,-120.3434 -20.7293,-123.368 -24.355,-127.907 -27.7619,-132.3444 -30.8584,-135.9313 -33.886,-139.3814 -36.2468,-142.4536 -38.4338,-145.5488 -41.1766,-149.799 -44.2824,-154.7342 -46.8813,-158.8877 -49.313,-162.9601 -51.9987,-167.4764 -53.8557,-171.4531 -55.1926,-175.466 -56.165,-181.7491 -56.5244,-189.322 -56.8425,-196.1379 -57.0585,-200.9653 -57.3867,-205.0574 -57.7298,-208.7772 -57.9622,-212.1573 -58.2404,-216.6573 -58.5561,-221.1971 -58.9519,-225.2997 -59.3493,-229.0158 -59.5826,-232.0264 -59.3236,-235.6491 -58.6066,-238.5979 -58.2418,-239.3389 A3.1724,3.1724 0 0 1 -52.7713,-236.1251 T-53.3064,-235.3765 -53.9438,-232.6606 -54.1093,-229.1911 -54.1701,-225.614 -53.9971,-221.6308 -53.4354,-217.1411 -52.8541,-211.0272 -52.7119,-205.2544 -52.6813,-201.215 -52.3439,-196.47 -51.6446,-189.713 -50.8045,-182.3948 -50.0489,-177.5123 -49.2721,-174.1915 -47.8383,-170.1456 -46.4325,-166.7032 -45.337,-164.0506 -43.6424,-160.9362 -40.9802,-156.895 -37.7679,-152.1312 -34.9319,-147.9406 -32.8991,-144.9077 -30.8556,-142.0798 -27.7991,-138.7077 -24.4054,-135.1184 -20.6597,-130.5474 -17.4,-126.0248 -14.9571,-122.9619 -11.9517,-119.6786 -8.4523,-116.1102 -4.8534,-112.9822 -1.6585,-110.1908 1.4159,-107.4589 4.4255,-104.9442 7.6288,-102.3335 11.8177,-98.9502 15.2748,-94.8978 15.6832,-89.8803 14.2485,-85.503 12.623,-81.8609 10.9445,-77.485 9.5549,-73.2823 8.0458,-68.6313 6.4896,-63.7461 4.6324,-59.2133 2.9837,-55.5 2.1395,-52.1966 1.3237,-48.4677 0.1813,-44.6138 -0.5163,-41.0158 -0.5827,-37.2104 -0.8608,-32.6013 -1.108,-28.4707 -1.1325,-25.0208 -1.1481,-21.6935 -1.1552,-18.3321 -1.0816,-14.8448 -0.5608,-11.6655 0.2154,-8.1655 1.183,-4.8326 2.3789,-2.6657 2.9347,-1.7608 A3.4224,3.4224 0 0 1 -2.9347,1.7608 ZM-56.9006,-240.5817 T-56.2213,-240.9484 -54.7538,-242.9807 -53.9115,-247.5403 -53.862,-252.2406 -54.1742,-257.0642 -54.5567,-261.5149 -54.7187,-265.5548 -54.6218,-269.7669 -54.1481,-272.8116 -53.2769,-275.8758 -51.5577,-280.02 -49.7202,-283.9973 -48.1938,-286.8234 -46.0629,-290.2615 -43.3412,-293.8622 -40.7987,-296.7608 -37.6875,-299.8747 -33.4825,-303.1267 -28.7621,-305.9667 -23.7958,-308.5518 -19.3065,-311.2413 -15.8103,-313.4686 -12.6481,-315.1483 -9.5152,-316.8939 -6.2433,-318.6092 -2.8799,-320.1459 0.1875,-321.264 3.1342,-321.9537 7.1491,-322.4285 11.8416,-322.7621 15.4824,-322.9269 18.3929,-322.485 21.3721,-320.3252 23.6804,-317.1688 24.5716,-313.3877 24.5816,-309.5811 23.8167,-306.6069 22.6517,-303.6675 21.2771,-300.5285 19.4538,-297.2907 17.4,-294.5044 14.9294,-292.2779 11.7673,-290.1145 8.3116,-287.6818 4.5854,-285.055 1.2874,-282.6228 -1.2617,-280.5971 -3.8249,-278.4946 -6.3382,-275.4144 -8.2983,-272.0406 -10.1775,-268.5121 -12.4678,-264.2157 -14.4367,-260.2473 -15.7822,-256.8929 -17.3145,-253.1171 -19.3307,-249.0624 -21.4296,-245.2417 -23.0777,-241.1899 -24.5069,-237.6502 -25.3784,-234.5024 -25.7506,-230.9528 -26.1306,-227.3448 -26.1659,-223.8125 -26.1264,-220.1272 -25.0884,-215.6513 -22.6261,-211.4201 -19.4919,-208.016 -16.6789,-204.6519 -14.7106,-201.7343 -12.4839,-199.2538 -9.7584,-196.4478 -7.0853,-193.4796 -4.3434,-190.1393 -1.4188,-185.6556 1.4828,-180.8491 3.9501,-177.4651 6.0742,-174.4709 7.997,-170.3681 9.9763,-166.3629 11.8278,-162.7001 13.9523,-158.699 16.6268,-154.1626 18.8724,-150.4054 20.6965,-147.4927 22.8397,-144.618 25.4869,-141.6383 27.9066,-138.2965 30.1061,-134.4051 32.6228,-130.8441 35.4373,-127.8562 38.1291,-125.0786 40.6442,-122.7334 43.802,-120.2351 47.5225,-117.3171 50.8581,-114.4605 54.6075,-112.1021 58.3358,-110.7819 61.3512,-110.5938 64.8604,-110.6012 68.4468,-110.628 71.7774,-110.6367 75.3114,-110.8008 79.3678,-111.4501 83.078,-112.0796 86.0207,-112.2585 89.8532,-112.7724 93.6253,-113.3427 97.2208,-113.5221 100.8267,-113.6663 104.2483,-114.7078 107.9921,-116.2953 111.7985,-117.2476 115.5718,-117.9519 119.514,-118.5419 123.9126,-118.9745 127.6652,-119.4665 131.2117,-120.4401 134.9929,-121.4865 138.545,-122.1218 142.7086,-122.4285 146.7957,-122.5039 151.1732,-122.8459 155.9354,-123.2328 159.826,-124.7297 163.1102,-126.6572 165.9013,-127.8679 168.4144,-129.3789 170.9098,-130.6676 174.1392,-131.7586 177.4752,-132.4292 180.9026,-132.7387 184.8441,-133.3694 188.2021,-134.7927 190.1605,-137.6289 191.0762,-141.1758 191.475,-144.5959 191.5374,-147.542 191.546,-148.825 A3.6541,3.6541 0 0 1 198.854,-148.775 T198.8307,-147.0065 198.69,-143.6135 198.2653,-140.1765 197.1472,-136.3816 195.4772,-132.631 193.4125,-130.0264 190.1489,-127.8265 185.8636,-126.0457 181.7396,-125.3558 178.0772,-125.3364 174.2823,-124.4071 170.6333,-122.4725 167.3592,-121.0128 164.5215,-119.4823 161.4707,-117.6317 158.127,-116.553 154.8134,-116.381 151.3543,-116.0343 148.3139,-115.8216 144.9424,-115.7965 140.7025,-115.5669 136.5935,-115.0201 133.2271,-114.1358 129.0804,-113.0622 124.6365,-112.3468 121.2742,-111.8942 118.2804,-111.4838 114.4752,-110.9173 110.779,-110.0623 108.0913,-108.9425 105.4209,-107.6671 101.8684,-107.0648 97.6234,-106.9385 93.2803,-106.5256 87.9614,-105.7031 83.3277,-105.056 80.1006,-104.5412 75.9873,-103.9645 71.7741,-103.7651 68.4363,-103.7781 64.8022,-103.8327 61.0417,-103.9339 57.8165,-104.2001 54.543,-105.3558 51.3403,-107.0485 48.5525,-108.9203 45.6594,-111.5902 42.4061,-114.5165 39.5354,-116.8222 37.1585,-118.8932 34.4787,-121.2642 31.6447,-123.8034 28.325,-126.5655 24.4514,-131.4567 20.9633,-136.65 18.1801,-140.0059 15.794,-143.4517 13.5298,-147.0339 11.1307,-150.9612 8.6822,-154.9144 6.6802,-158.4619 5.2207,-161.684 3.8058,-164.3624 2.2918,-167.5167 0.3692,-171.4502 -2.1986,-175.5089 -4.464,-178.7532 -6.824,-182.1878 -9.4078,-185.9604 -11.9566,-189.0209 -14.5086,-191.8929 -17.3492,-194.8282 -19.9371,-197.7546 -21.5855,-200.4554 -24.0511,-203.4237 -27.0653,-206.2871 -29.8292,-209.6808 -32.1661,-214.1189 -33.0787,-217.8766 -33.0402,-221.2764 -32.9334,-225.2109 -32.7129,-228.7101 -32.2309,-231.7434 -31.6664,-234.9371 -30.9817,-238.1707 -29.6912,-241.0682 -28.1193,-244.3485 -26.2656,-248.1033 -23.9415,-251.7428 -21.7609,-255.2052 -20.1602,-258.6058 -18.775,-262.2078 -17.0656,-266.3325 -15.2765,-270.8781 -13.6803,-274.8855 -12.1454,-278.0501 -10.4244,-280.7845 -7.9664,-283.3867 -4.5399,-286.2902 -0.8299,-289.194 2.6725,-291.7605 6.0976,-294.2624 9.5882,-296.6771 12.6551,-299.3608 14.9007,-302.5664 16.5805,-306.0234 17.7661,-309.2829 18.1791,-312.3139 17.5032,-315.1805 15.459,-316.7971 12.0282,-317.0632 7.6736,-316.9811 3.0249,-316.4928 -0.7036,-315.4844 -3.6968,-314.0288 -6.7453,-312.2554 -9.866,-310.2703 -13.9025,-307.7732 -17.4542,-305.4415 -21.0284,-303.2882 -24.7403,-301.2869 -27.2853,-299.826 -30.0365,-298.1064 -32.6109,-296.1096 -34.9512,-293.9518 -37.6304,-291.446 -40.1824,-288.7162 -42.6259,-285.2413 -44.6211,-281.5038 -46.3417,-277.7311 -48.0726,-273.1416 -48.9418,-268.2219 -49.0287,-263.1302 -48.8374,-259.0367 -48.4776,-255.9102 -48.1183,-252.4871 -47.6947,-248.246 -47.748,-243.6106 -48.9071,-239.8222 -50.8828,-237.0032 -53.0847,-235.3507 -54.1125,-234.8823 A3.1724,3.1724 0 0 1 -56.9006,-240.5817 Z" stroke-linecap="round" fill="#4f72fc"/></g></g><g transform="matrix(1, 0, 0, 1, 697.6, 274.2)" opacity="1"><g transform="scale(1)"><path d="M0,3.3414 T-1.0944,3.3331 -3.5721,3.3499 -4.9553,3.3749 A3.3749,3.3749 0 0 1 -4.9553,-3.3749 T-3.5721,-3.3499 -1.0944,-3.3331 0,-3.3414 A3.3414,3.3414 0 0 1 0,3.3414 ZM-8.0664,1.308 T-8.6702,-0.1098 -9.5904,-4.1984 -9.9068,-6.8693 A3.5302,3.5302 0 0 1 -2.8525,-7.1623 T-2.7617,-5.2368 -2.2576,-2.3096 -1.8442,-1.308 A3.3749,3.3749 0 0 1 -8.0664,1.308 ZM-8.6666,-9.7051 T-7.7406,-10.4548 -4.9884,-12.3967 -1.7103,-14.0015 1.8281,-14.5583 6.1627,-13.7663 10.065,-11.6211 13.0379,-8.7005 15.1338,-5.0373 16.1266,-1.1463 16.3723,2.5917 15.7706,6.2347 13.4487,9.6654 9.9881,11.7289 6.2023,12.252 2.7534,11.7469 -0.1573,10.0302 -2.8123,7.4612 -5.114,4.6194 -6.7597,1.7161 -7.4448,-1.3165 -7.2991,-5.3298 -5.8006,-9.6023 -3.5172,-12.3634 -0.7648,-14.1781 2.6619,-15.3703 6.1037,-15.3664 9.3643,-13.2672 11.3139,-9.5977 11.6249,-6.0756 10.8763,-3.1566 8.9144,-1.2417 6.0788,-0.5813 3.0977,-1.2373 0.7627,-4.6277 -0.1615,-7.3345 A3.8152,3.8152 0 0 1 7.4625,-7.6499 T7.0662,-7.6399 5.4317,-6.6505 4.134,-7.0993 2.4379,-7.4465 0.243,-4.7698 -0.1075,-1.6132 1.6166,1.6968 4.4556,4.2528 7.472,4.1786 9.1193,1.3168 8.6423,-2.1113 7.2361,-4.6563 5.1088,-6.6885 2.1962,-7.5304 -0.9399,-6.6757 -3.2039,-5.12 -4.0927,-4.3265 A3.5302,3.5302 0 0 1 -8.6666,-9.7051 ZM7.1921,-8.9109 T7.7851,-7.3184 8.4853,-4.209 8.5978,-0.9581 8.6031,0.776 A3.8032,3.8032 0 0 1 0.9969,0.824 T0.9243,-1.8095 0.4803,-5.2583 0.1088,-6.0735 A3.8152,3.8152 0 0 1 7.1921,-8.9109 Z" stroke-linecap="round" fill="#4f72fc"/></g></g><g transform="matrix(1, 0, 0, 1, 758.4, 267)" opacity="1"><g transform="scale(1)"><path d="M-2.3499,2.3499 T-3.4043,1.2155 -5.8576,-1.5121 -7.9101,-5.1107 -9.0756,-9.2142 -9.7052,-13.052 -9.8358,-16.495 -9.2731,-19.6205 -6.7897,-22.379 -3.0794,-24.0152 0.3305,-24.275 3.8329,-22.9894 6.9435,-20.5239 9.1722,-17.3497 10.4688,-13.5536 10.7964,-9.8377 10.7955,-5.8211 10.7678,-1.9874 9.906,1.8119 7.0134,5.0514 3.0586,6.4147 -1.26,6.0894 -5.8288,3.8865 -8.5022,0.2746 -9.097,-3.4353 -8.6832,-7.4213 -6.8789,-11.0733 -3.9232,-12.8463 -0.5196,-12.9995 3.1192,-11.0873 5.5197,-7.2358 6.0069,-5.0868 A3.7407,3.7407 0 0 1 -1.4193,-4.1801 T-1.6634,-4.3636 -2.0529,-2.9815 -0.8558,-0.9718 2.0502,-0.4506 3.6281,-2.0201 3.5888,-5.7862 3.5163,-9.5501 3.291,-12.7078 1.5196,-15.6862 -1.4717,-17.0666 -2.9032,-15.0401 -2.8053,-11.6091 -2.3133,-8.4624 -0.9217,-5.632 1.2155,-3.4043 2.3499,-2.3499 A3.3232,3.3232 0 0 1 -2.3499,2.3499 ZM3.6351,-1.1415 T1.4082,-0.6593 -2.0774,-0.9437 -4.1499,-2.8819 -5.4201,-5.7984 -5.9934,-9.1853 -5.7283,-12.5529 -3.7065,-15.5689 -0.3263,-17.0137 3.4285,-15.7412 5.7794,-12.4409 6.1157,-10.5676 A3.7944,3.7944 0 0 1 -1.4247,-9.7125 T-1.3727,-10.3456 0.04,-10.6364 1.2222,-8.854 0.9981,-7.7697 0.9526,-8.1254 A3.7407,3.7407 0 0 1 3.6351,-1.1415 ZM4.0569,-6.7535 T2.5198,-6.0324 -1.6695,-5.9814 -5.1454,-7.8578 -6.4083,-11.4161 -6.8475,-13.7681 A3.7019,3.7019 0 0 1 0.4475,-15.0319 T-0.1469,-13.876 -0.0536,-13.1233 0.634,-13.5265 A3.7944,3.7944 0 0 1 4.0569,-6.7535 Z" stroke-linecap="round" fill="#4f72fc"/></g></g><g transform="matrix(1, 0, 0, 1, 712.8, 318.2)" opacity="1"><g transform="scale(1)"><path d="M2.8831,-1.4416 T3.5572,0.0425 5.0177,2.7036 6.4526,5.1942 7.8869,7.9321 9.6684,10.4567 11.6516,12.8049 13.5885,15.1668 15.7101,17.5921 18.356,19.8868 21.8863,21.9015 25.3268,23.5643 28.8029,24.8674 33.0459,26.314 36.6113,27.3339 39.5152,27.9548 42.5691,28.7418 45.8272,29.1978 48.9432,29.2566 50.9539,27.9683 52.6263,24.5601 53.8547,20.4166 54.0175,16.6297 54.0391,12.7991 54.0274,8.9311 53.7683,5.6826 53.3481,2.6569 53.1372,-0.7546 53.1777,-4.1454 52.661,-6.8526 52.0684,-8.0167 A3.7691,3.7691 0 0 1 59.2782,-10.2175 T59.8127,-8.4721 60.4281,-5.1708 60.505,-2.1535 60.4821,0.8643 60.8311,4.2486 61.1817,7.7805 61.1596,10.9135 61.129,14.219 61.0065,18.207 60.5938,22.3929 59.2582,26.6679 57.066,30.7905 54.7987,33.922 51.497,35.7405 47.7244,36.2963 44.5649,36.1333 41.5193,35.6709 38.5178,34.8007 35.0013,33.8888 30.811,32.7785 27.0372,31.4951 24.0673,30.3479 21.0203,29.0417 17.4452,27.2872 14.318,25.4242 12.0162,23.3813 9.5875,20.8495 7.5629,18.2572 5.7293,15.7248 3.6397,12.6818 1.778,9.1115 -0.2111,5.8152 -2.098,2.8759 -2.8831,1.4416 A3.2235,3.2235 0 0 1 2.8831,-1.4416 ZM54.8208,-12.7885 T56.0991,-13.0677 58.2699,-13.8854 59.1623,-14.4238 A3.8144,3.8144 0 0 1 64.2089,-8.7028 T62.8686,-7.6217 59.6461,-6.1545 57.1449,-5.6071 56.5259,-5.4457 A3.7691,3.7691 0 0 1 54.8208,-12.7885 ZM65.1161,-13.2311 T65.4229,-12.6181 65.7297,-12.0052 A3.8303,3.8303 0 0 1 58.8402,-8.6557 T58.5477,-9.2756 58.2551,-9.8955 A3.8144,3.8144 0 0 1 65.1161,-13.2311 ZM65.6431,-8.4881 T65.4064,-8.0462 65.1696,-7.6042 A3.8403,3.8403 0 0 1 58.4358,-11.2985 T58.6814,-11.7356 58.9269,-12.1728 A3.8303,3.8303 0 0 1 65.6431,-8.4881 ZM63.3923,-5.9555 T62.0165,-5.3385 58.666,-4.1354 54.7764,-3.4705 51.3671,-3.3844 48.0622,-3.9465 44.9896,-6.1446 43.3118,-8.7254 42.8958,-9.6777 A3.8206,3.8206 0 0 1 49.9042,-12.7223 T50.7879,-11.8809 53.2284,-10.7969 56.4344,-11.258 59.1484,-12.4544 60.2131,-12.9472 A3.8403,3.8403 0 0 1 63.3923,-5.9555 Z" stroke-linecap="round" fill="#4f72fc"/></g></g><g transform="matrix(1, 0, 0, 1, 701.6, 314.2)" opacity="1"><g transform="scale(1)"><path d="M0.6805,-3.4027 T1.5979,-3.2141 3.8771,-2.5736 6.7099,-1.6853 9.9855,-1.2324 12.7724,-2.9221 13.4157,-5.2321 13.0767,-5.836 A3.7308,3.7308 0 0 1 20.5233,-5.364 T20.2455,-3.2386 19.2666,0.2764 17.6261,3.2899 14.2207,5.456 10.0894,5.9594 6.7378,5.6668 3.0922,4.584 0.2261,3.5789 -0.6805,3.4027 A3.4701,3.4701 0 0 1 0.6805,-3.4027 Z" stroke-linecap="round" fill="#4f72fc"/></g></g><g transform="matrix(1, 0, 0, 1, 847.2, 252.6)" opacity="1"><g transform="scale(1)"><path d="M-2.25,-1.5 T-0.685,-3.6171 2.0524,-7.8522 4.7204,-12.0313 7.7041,-16.3747 10.3729,-20.6174 12.7734,-24.3053 15.1717,-27.7959 17.775,-31.4717 20.5056,-35.1442 23.2475,-38.9253 25.5697,-42.7011 27.3124,-46.0672 29.4303,-49.6319 31.6954,-53.4781 33.5978,-57.0423 35.5499,-60.5153 37.3133,-63.5615 39.1057,-66.3361 41.0287,-69.4023 43.2412,-72.1982 44.613,-73.4583 A2.8798,2.8798 0 0 1 48.187,-68.9417 T46.602,-67.4685 44.0136,-64.8421 41.5009,-62.0111 38.9471,-58.552 36.957,-55.2079 34.9656,-51.6054 32.7554,-47.6422 30.6701,-44.2279 28.7099,-40.8001 26.2371,-36.7813 23.5174,-32.9401 20.9026,-29.3068 18.3738,-25.5882 16.0324,-22.1919 13.7436,-18.5847 11.1454,-14.1116 8.4706,-9.8097 6.1016,-5.4732 3.6034,-0.7605 2.25,1.5 A2.7042,2.7042 0 0 1 -2.25,-1.5 Z" stroke-linecap="round" fill="#4f72fc"/></g></g><g transform="matrix(1, 0, 0, 1, 842.4, 251.8)" opacity="1"><g transform="scale(1)"><path d="M0.4983,-2.6579 T3.3932,-1.9851 8.7748,-0.7366 14.0968,0.5415 19.192,1.8204 23.4204,2.8592 27.0976,3.5232 30.4547,3.8158 34.954,3.9223 39.4004,3.9361 42.4117,3.9085 45.5078,3.8877 48.6502,3.8696 52.4511,3.7678 57.0717,3.6327 60.9604,3.5975 63.988,3.614 68.2605,3.6204 72.7735,3.6551 76.0688,3.6934 79.503,3.745 83.0128,3.7968 86.199,3.7954 89.3915,3.7953 93.8407,3.7644 98.085,3.7131 101.975,3.6506 106.2841,3.5277 109.6299,3.4024 111.923,3.3196 112.8,3.2977 A3.1023,3.1023 0 0 1 112.8,9.5023 T111.923,9.4804 109.6299,9.3976 106.2841,9.2723 101.975,9.1494 98.085,9.0869 93.8407,9.0356 89.3914,9.0047 86.199,9.0045 83.0128,9.0032 79.503,9.055 76.0688,9.1066 72.7735,9.1448 68.2603,9.1793 63.9875,9.1854 60.9594,9.2013 57.0686,9.164 52.4424,9.0211 48.6343,8.9061 45.4769,8.8677 42.3572,8.8096 39.3072,8.7133 34.7191,8.4505 29.9872,8.0486 26.3384,7.5569 22.5016,6.7792 18.2822,5.8384 13.2132,4.8195 7.898,3.8856 2.4436,3.0795 -0.4983,2.6579 A2.7042,2.7042 0 0 1 0.4983,-2.6579 Z" stroke-linecap="round" fill="#4f72fc"/></g></g><g transform="matrix(1, 0, 0, 1, 896, 175.8)" opacity="1"><g transform="scale(1)"><path d="M-2.6777,0.8033 T-3.1624,-1.0396 -4.0536,-5.0751 -4.9026,-8.6911 -5.6169,-12.0238 -6.1698,-15.7539 -6.7677,-19.4839 -7.262,-23.4499 -7.6598,-27.6346 -8.0441,-31.7205 -8.318,-35.4798 -8.4463,-39.3654 -8.3153,-43.4145 -7.9118,-47.1927 -6.8665,-51.5283 -5.497,-56.0677 -4.1982,-60.3012 -2.5174,-65.0342 -0.6777,-69.9725 1.458,-74.9096 4.3005,-80.4007 7.4934,-86.1087 10.723,-91.2655 14.3236,-96.4639 18.505,-101.8823 22.4481,-106.5006 26.4482,-110.681 31.0309,-114.9942 35.3232,-118.9555 40.6549,-123.1778 46.722,-127.3506 52.1581,-131.0363 58.6842,-134.7409 65.6495,-137.7334 71.5626,-140.0545 77.5759,-142.0628 83.7364,-143.38 89.3056,-144.0897 95.0437,-144.6514 101.0347,-145.3159 106.4561,-146.0386 111.0112,-146.8129 115.1889,-147.4625 119.892,-148.4501 126.1135,-148.6159 133.2231,-147.5407 139.8828,-146.5763 146.9542,-145.6738 155.1147,-144.9954 163.5778,-144.435 172.198,-143.9413 180.2257,-143.2986 186.9724,-142.5819 192.8038,-142.0096 198.4425,-141.1371 203.8294,-140.3032 208.7291,-139.6725 213.4608,-138.9551 217.5512,-138.26 221.3355,-137.3757 225.8738,-136.3152 230.2016,-135.254 235.0792,-133.9864 241.7265,-132.1068 248.141,-130.1311 253.9766,-128.3127 259.3037,-126.1623 263.987,-124.0839 269.2527,-121.6742 274.7437,-118.8649 279.3444,-116.433 283.8944,-113.8059 288.3817,-111.0954 292.322,-108.495 296.5141,-105.4112 300.9475,-102.1139 305.2013,-98.8468 309.4934,-95.6309 313.7495,-92.8438 317.7222,-90.4059 321.7198,-87.976 325.6746,-85.791 329.1794,-83.9123 332.5862,-81.992 335.7931,-80.0323 338.8799,-77.8478 342.033,-75.3441 344.9034,-72.8907 347.6253,-70.2271 350.7261,-66.6888 353.839,-62.6663 356.3228,-59.1931 358.5996,-55.6288 360.7507,-51.5724 362.6578,-47.5237 364.5966,-42.9275 366.5517,-37.8438 368.1758,-32.8228 369.4489,-28.2443 370.5313,-24.1283 371.3447,-19.9664 371.9516,-15.2955 372.4203,-10.0089 372.6713,-4.5272 372.4315,1.4744 371.7428,7.1865 370.8098,12.482 369.3553,17.8497 367.6486,22.9615 365.8149,28.2597 363.6965,33.5816 361.4158,38.3673 359.2743,42.5863 356.8194,47.089 353.9939,51.7837 350.3599,56.4509 345.7201,60.9358 341.2122,64.7905 337.0177,68.6348 332.7593,72.8879 327.7571,77.1398 321.2457,81.1941 314.1869,84.6873 307.5342,87.1528 300.9684,89.0461 294.9069,90.783 289.2506,92.4539 283.8037,94.092 278.0297,95.549 271.4775,96.5485 265.1512,97.0892 259.16,97.379 253.7092,97.5359 249.2886,97.6611 244.8719,97.7366 240.644,97.8101 236.886,97.9185 233.0164,97.9821 229.4523,98.067 226.0537,98.1553 222.2752,97.9999 218.4583,97.5477 214.6464,96.7257 211.1911,95.9548 208.2307,95.6281 203.5593,95.4196 196.8909,95.0788 191.4434,94.6963 187.4036,94.2762 182.6731,93.8047 177.4633,93.4894 172.7801,93.3149 168.4095,93.2075 163.6642,93.1167 158.8929,93.0564 154.6543,93.0662 149.3283,92.7046 142.9626,92.0963 137.2833,91.3853 131.5056,90.0587 125.8553,88.6087 120.6765,87.4709 115.9136,86.687 111.9813,86.1437 108.4061,85.7401 103.5399,85.3889 98.8806,85.0797 95.0596,85.0078 90.4662,85.0723 85.7109,84.9991 81.4264,84.8231 77.7404,84.8074 74.3634,84.5695 71.4675,84.2177 70.1302,84.1406 A3.3515,3.3515 0 0 1 70.6698,77.4594 T73.0018,77.7671 76.8851,78.2818 80.058,78.5876 83.2403,78.9449 86.4928,79.4673 90.5866,79.8455 95.3319,80.1901 99.3743,80.5916 102.654,81.0295 105.6286,81.4786 108.9616,81.8985 112.5682,82.5331 116.473,83.2277 121.4223,84.0488 126.7206,85.1909 132.2823,86.5906 137.7269,87.8199 143.2885,88.4544 149.5391,88.9783 154.6638,89.3567 158.9064,89.3857 163.6905,89.3609 168.463,89.3351 172.8709,89.3471 177.6187,89.3923 183.0394,89.4808 187.7915,89.7515 191.7946,90.0251 197.1789,90.2966 202.3983,90.5241 205.7492,90.6809 208.8666,91.0097 212.1909,91.5531 215.594,92.3814 219.0248,93.1579 222.4863,93.6325 226.0519,93.8395 229.4477,93.9234 233.0087,94.0002 236.872,94.049 240.6228,94.1302 244.8333,94.1537 249.2224,94.1371 253.6125,94.0932 258.9931,93.9392 264.8655,93.6575 270.959,93.1477 277.1787,92.2161 282.8118,90.7938 288.2749,89.1508 293.9562,87.4727 300.018,85.7357 306.3497,83.9256 312.6762,81.5951 319.4173,78.2838 325.5322,74.524 330.3285,70.447 334.6937,66.0955 338.9751,62.1697 343.3417,58.447 347.639,54.3674 351.0453,49.9969 353.7851,45.4548 356.1957,41.0251 358.3041,36.8713 360.4826,32.3011 362.5379,27.1306 364.3528,21.8589 366.0002,16.929 367.3585,11.8847 368.243,6.7582 368.8835,1.3593 369.0754,-4.346 368.7788,-9.6552 368.2409,-14.8163 367.668,-19.2921 366.9832,-23.2264 365.982,-27.287 364.7663,-31.7039 363.1566,-36.5127 361.1789,-41.4513 359.2412,-45.8902 357.3755,-49.7325 355.2736,-53.4759 353.0854,-56.8729 350.7142,-60.1609 347.585,-63.873 344.5759,-67.1762 342.1018,-69.7125 339.4443,-72.1237 336.4593,-74.5385 333.6276,-76.7015 330.6488,-78.7099 327.3791,-80.7308 323.9756,-82.7441 319.9254,-85.0312 315.9139,-87.469 311.8697,-89.9558 307.4243,-92.8682 303.0975,-96.106 298.884,-99.3375 294.4585,-102.6216 290.4131,-105.6005 286.5872,-108.1096 282.1631,-110.768 277.7085,-113.3161 273.1328,-115.7032 267.7908,-118.3995 262.5313,-120.7459 257.9256,-122.7159 252.8831,-124.6546 247.0336,-126.3295 240.6855,-128.0927 233.9312,-129.7332 228.9262,-130.913 224.7548,-132.2917 220.3754,-133.7044 216.8761,-134.7313 212.9423,-135.5379 208.2883,-136.2395 203.3114,-136.8762 197.9193,-137.7016 192.4612,-138.538 186.6118,-139.0954 179.9336,-139.7846 172.0006,-140.3851 163.3519,-140.8356 154.8238,-141.3402 146.5034,-141.9491 139.3731,-142.7422 132.6678,-143.5536 124.9582,-144.4649 119.2369,-144.5253 115.7078,-143.915 111.5843,-143.3722 106.9149,-142.6252 101.415,-141.8925 95.377,-141.2229 89.7325,-140.6733 84.4365,-140.0109 78.6715,-138.8057 72.8215,-136.8478 66.986,-134.5605 60.4015,-131.764 54.0906,-128.1801 48.6704,-124.5029 42.8283,-120.5059 37.6679,-116.4161 33.4027,-112.4741 28.9607,-108.2945 25.0888,-104.2397 21.2672,-99.755 17.2107,-94.4753 13.715,-89.3963 10.6057,-84.3784 7.5112,-78.7594 4.8312,-73.4877 2.8505,-68.699 1.1469,-63.806 -0.3329,-59.1845 -1.491,-54.9397 -2.6262,-50.6001 -3.5028,-46.6609 -3.9497,-43.2752 -4.041,-39.5202 -3.907,-35.7657 -3.6991,-32.1867 -3.1975,-28.1477 -2.6374,-24.1028 -2.0416,-20.3174 -1.3061,-16.5044 -0.749,-13.0745 -0.0936,-9.9514 0.9046,-6.3942 2.068,-2.6084 2.6777,-0.8033 A2.7956,2.7956 0 0 1 -2.6777,0.8033 Z" stroke-linecap="round" fill="#4f72fc"/></g></g><g transform="matrix(1, 0, 0, 1, 950.4, 91)" opacity="1"><g transform="scale(1)"><path d="M0.8971,3.14 T-0.3862,3.481 -3.764,4.4402 -7.9382,6.192 -11.3043,8.1786 -14.0289,10.7153 -15.9268,13.778 -16.5028,16.7454 -15.2805,19.6092 -12.5544,21.7373 -9.4794,23.177 -6.2402,24.0055 -3.2298,24.3303 -0.2832,24.4107 3.8037,24.4032 6.4029,24.3985 A3.6015,3.6015 0 0 1 6.3971,31.6015 T4.427,31.5943 0.6603,31.5592 -2.7187,31.4261 -5.9238,31.0982 -9.6543,30.2622 -13.9422,28.7123 -17.6648,26.7036 -20.6308,23.754 -22.7657,19.7722 -23.3431,15.9028 -22.8172,12.4201 -21.1712,9.0239 -18.8902,6.2131 -16.3201,3.8634 -13.2468,1.7144 -9.4835,-0.2322 -5.3442,-1.8049 -2.1674,-2.7514 -0.8971,-3.14 A3.2656,3.2656 0 0 1 0.8971,3.14 Z" stroke-linecap="round" fill="#4f72fc"/></g></g><g transform="matrix(1, 0, 0, 1, 978.4, 105.4)" opacity="1"><g transform="scale(1)"><path d="M2.0192,2.7818 T1.0794,3.479 0.276,5.9172 0.4166,9.454 1.7735,12.5025 5.1647,13.8309 8.3815,13.1135 9.3137,10.4798 8.5826,7.1495 6.009,4.5516 3.265,3.5645 2.61,3.6855 A3.7325,3.7325 0 0 1 3.79,-3.6855 T4.9837,-3.4822 7.6595,-2.6986 11.2422,-0.5932 14.2983,2.4398 15.8708,5.7655 16.4604,9.3387 16.3243,12.528 15.0511,15.9167 12.4292,19.2642 9.0089,20.9392 4.9754,21.0964 1.1054,20.4538 -2.118,19.0649 -4.5325,16.9823 -6.1249,14.3775 -6.7605,10.9223 -6.7526,7.0523 -6.4413,3.5583 -5.2101,0.3398 -3.134,-1.9877 -2.0192,-2.7818 A3.4374,3.4374 0 0 1 2.0192,2.7818 ZM3.7168,-3.6965 T5.4807,-3.4207 8.5891,-2.4091 11.4887,-0.4201 14.5362,1.664 17.5897,3.2227 20.4982,4.7973 23.7462,6.2411 25.6469,6.8382 A3.6611,3.6611 0 0 1 23.9531,13.9618 T21.2815,13.0777 17.363,11.4197 14.7615,10.0659 11.6495,8.4644 8.5716,6.5312 6.016,4.7755 3.732,3.8139 2.6832,3.6965 A3.7325,3.7325 0 0 1 3.7168,-3.6965 Z" stroke-linecap="round" fill="#4f72fc"/></g></g><g transform="matrix(1, 0, 0, 1, 1018.4, 82.2)" opacity="1"><g transform="scale(1)"><path d="M3.0407,0 T2.8747,2.736 2.6615,7.3252 2.6836,11.5637 2.8305,15.5992 2.9993,19.1488 3.1524,22.5664 3.7302,26.0025 4.4983,29.4441 5.1835,32.1714 5.6162,33.3752 A3.3755,3.3755 0 0 1 -0.8162,35.4248 T-1.0746,34.5979 -1.6529,32.2395 -2.3347,28.8366 -2.9556,25.5869 -3.1524,22.6285 -2.9993,19.1488 -2.8305,15.5992 -2.6836,11.5637 -2.6615,7.3252 -2.8747,2.736 -3.0407,0 A3.0407,3.0407 0 0 1 3.0407,0 Z" stroke-linecap="round" fill="#4f72fc"/></g></g><g transform="matrix(1, 0, 0, 1, 1020.8, 100.6)" opacity="1"><g transform="scale(1)"><path d="M0,-3.1446 T1.824,-3.0592 5.1875,-2.9478 8.9922,-3.1 13.064,-3.4995 17.0377,-4.4528 20.9715,-5.4315 24.1306,-5.7353 25.523,-5.7922 A3.3931,3.3931 0 0 1 25.677,0.9922 T23.6057,1.0186 19.9705,1.4244 16.8699,2.0911 13.7702,2.4635 9.4671,2.7352 5.1875,2.9478 1.824,3.0592 0,3.1446 A3.1446,3.1446 0 0 1 0,-3.1446 Z" stroke-linecap="round" fill="#4f72fc"/></g></g><g transform="matrix(1, 0, 0, 1, 1024, 167.8)" opacity="1"><g transform="scale(1)"><path d="M0.5941,2.9703 T-1.2447,3.2554 -5.2466,4.1669 -9.9099,6.8781 -13.4588,10.358 -15.4555,13.6302 -15.625,17.2035 -13.0096,19.6144 -9.7889,20.8593 -6.9216,22.4587 -3.85,24.9355 -1.8644,28.3712 -1.6643,32.4581 -2.6541,36.2665 -4.5692,39.1248 -7.1128,40.7898 -10.661,41.8022 -14.3231,42.4112 -17.3787,42.6442 -20.6408,42.7243 -22.3818,42.7245 A3.5245,3.5245 0 0 1 -22.4182,35.6755 T-21.4826,35.662 -18.9364,35.6444 -15.5219,35.5189 -11.9061,35.1413 -9.1771,33.6241 -8.5169,30.5665 -10.3607,27.7051 -13.7543,25.8704 -17.1242,24.2755 -20.0571,22.0791 -21.8491,17.8701 -21.4255,12.9962 -19.7927,9.7604 -18.0064,7.0704 -15.8515,3.8015 -12.4536,0.5892 -8.55,-1.0548 -5.5506,-1.6729 -2.4033,-2.5258 -0.5941,-2.9703 A3.0292,3.0292 0 0 1 0.5941,2.9703 Z" stroke-linecap="round" fill="#4f72fc"/></g></g><g transform="matrix(1, 0, 0, 1, 1034.4, 179.8)" opacity="1"><g transform="scale(1)"><path d="M2.3071,-1.442 T3.196,0.0316 5.0637,3.0057 7.299,6.9425 9.7634,11.9962 11.6618,16.8794 12.8006,20.7114 13.7243,24.3046 14.3833,27.411 14.5667,28.4906 A2.5852,2.5852 0 0 1 9.4333,29.1094 T9.3549,28.0171 9.1293,25.1258 8.6886,21.8773 7.7227,18.491 5.7523,14.1288 3.1167,9.5638 0.671,5.8779 -1.372,2.8868 -2.3071,1.442 A2.7207,2.7207 0 0 1 2.3071,-1.442 Z" stroke-linecap="round" fill="#4f72fc"/></g></g><g transform="matrix(1, 0, 0, 1, 1047.2001, 192.6)" opacity="1"><g transform="scale(1)"><path d="M-1.8517,-2.7974 T-0.9599,-3.3817 1.1608,-4.8925 3.8861,-6.6551 6.9661,-8.2421 8.5498,-8.9932 A3.552,3.552 0 0 1 10.6502,-2.2068 T9.1589,-1.5889 6.1208,0.0061 3.2129,1.8904 1.8517,2.7974 A3.3547,3.3547 0 0 1 -1.8517,-2.7974 Z" stroke-linecap="round" fill="#4f72fc"/></g></g><g transform="matrix(1, 0, 0, 1, 1073.6, 195.8)" opacity="1"><g transform="scale(1)"><path d="M2.9787,-1.3239 T3.6252,0.3543 5.3833,3.7927 7.3594,7.1966 9.6006,9.4925 12.4873,10.1307 15.4225,8.3597 16.59,5.0685 16.3331,1.9774 16.3288,-1.7909 16.324,-4.002 A3.676,3.676 0 0 1 23.676,-3.998 T23.6779,-2.6778 23.6619,0.0669 23.6073,3.1397 23.3546,6.7074 22.0291,10.2059 19.471,13.6728 16.7195,16.2294 13.523,16.9492 9.8298,16.8496 6.6309,16.158 3.9884,13.8089 2.1029,10.5578 0.0536,6.8243 -2.166,2.9289 -2.9787,1.3239 A3.2597,3.2597 0 0 1 2.9787,-1.3239 Z" stroke-linecap="round" fill="#4f72fc"/></g></g><g transform="matrix(1, 0, 0, 1, 1112.8, 203.8)" opacity="1"><g transform="scale(1)"><path d="M-3.0068,0.3007 T-3.1142,-1.5309 -3.3078,-4.9534 -3.5159,-9.0036 -3.6519,-12.8647 -3.662,-15.7568 -3.7136,-19.3307 -3.2815,-23.7147 -2.6531,-27.4187 -1.4939,-30.7012 1.233,-33.9198 5.5177,-35.8989 9.5532,-36.5929 12.5558,-36.4802 16.3714,-35.6293 20.0827,-34.6687 21.5221,-34.3915 A3.2721,3.2721 0 0 1 20.0779,-28.0085 T19.151,-28.2249 16.6626,-28.9785 13.2272,-29.8567 8.9171,-29.9671 5.0984,-28.8888 3.3847,-26.1029 2.6175,-22.7865 2.1405,-19.3446 2.1387,-14.4429 2.2227,-9.2572 2.3797,-5.4215 2.7494,-2.1171 3.0068,-0.3007 A3.0218,3.0218 0 0 1 -3.0068,0.3007 Z" stroke-linecap="round" fill="#4f72fc"/></g></g><g transform="matrix(1, 0, 0, 1, 1112, 183.8)" opacity="1"><g transform="scale(1)"><path d="M0,-3.2214 T1.6416,-3.1594 5.0882,-3.0198 9.0558,-2.9786 12.8024,-3.0647 15.863,-3.1796 18.6698,-3.278 20,-3.3111 A3.3111,3.3111 0 0 1 20,3.3111 T18.6698,3.278 15.863,3.1796 12.8024,3.0647 9.0558,2.9786 5.0882,3.0198 1.6416,3.1594 0,3.2214 A3.2214,3.2214 0 0 1 0,-3.2214 Z" stroke-linecap="round" fill="#4f72fc"/></g></g><g transform="matrix(1, 0, 0, 1, 1149.6, 210.2)" opacity="1"><g transform="scale(1)"><path d="M-2.9121,0.5824 T-3.2033,-1.2569 -3.6433,-5.1375 -3.8993,-8.8099 -4.083,-11.884 -4.2654,-15.7533 -4.4583,-19.7455 -4.1091,-24.0536 -3.1686,-28.7688 -1.8341,-32.3082 0.506,-35.2896 4.4214,-37.4495 8.5133,-38.3501 11.8752,-38.5541 15.5767,-38.1772 17.6027,-37.7519 A3.4467,3.4467 0 0 1 15.9973,-31.0481 T14.1632,-31.387 10.1074,-31.6109 6.5365,-31.1066 4.0431,-29.2957 2.1731,-25.8403 1.3798,-21.803 1.2664,-17.9663 1.2713,-13.4687 1.4304,-9.2693 1.7872,-5.967 2.4737,-2.3911 2.9121,-0.5824 A2.9698,2.9698 0 0 1 -2.9121,0.5824 Z" stroke-linecap="round" fill="#4f72fc"/></g></g><g transform="matrix(1, 0, 0, 1, 1151.2001, 191.8)" opacity="1"><g transform="scale(1)"><path d="M-0.2615,-2.8765 T1.7537,-2.9629 5.8313,-3.0787 9.9258,-3.107 14.2987,-3.2492 18.7069,-3.4919 20.7742,-3.5911 A2.7913,2.7913 0 0 1 20.8258,1.9911 T18.7725,1.93 14.4042,1.8161 10.1175,1.8725 6.2013,2.1507 2.2591,2.5981 0.2615,2.8765 A2.8884,2.8884 0 0 1 -0.2615,-2.8765 Z" stroke-linecap="round" fill="#4f72fc"/></g></g><g transform="matrix(1, 0, 0, 1, 949.6, 255.8)" opacity="1"><g transform="scale(1)"><path d="M-0.3678,-3.3103 T1.2818,-3.4205 5.1326,-3.6949 9.0698,-3.9729 12.3883,-4.1407 15.6121,-4.2301 18.6564,-4.539 21.8051,-5.1923 25.3949,-5.7459 28.6897,-5.9608 31.7148,-6.0114 35.1717,-5.69 38.6784,-4.9636 42.3526,-3.8361 45.8806,-2.4925 48.7907,-1.214 51.6878,0.2124 54.5807,1.433 57.6648,2.3038 61.3844,3.3692 65.046,4.242 68.3564,4.4782 71.5736,4.4999 74.9356,4.5168 78.7847,4.5108 83.105,4.5478 87.3641,4.6116 90.8938,4.581 95.0463,4.5182 97.6,4.493 A3.507,3.507 0 0 1 97.6,11.507 T95.0463,11.4818 90.8937,11.419 87.364,11.3882 84.0219,11.4461 80.4313,11.4873 76.5082,11.4817 73.0105,11.4868 69.4847,11.428 66.0848,11.2472 62.9092,10.7674 59.7389,9.8711 56.161,8.848 52.2776,7.701 47.7232,6.0141 43.0653,4.1558 39.5144,2.907 36.3751,2.1308 32.8855,1.4988 29.236,1.2176 25.7966,1.3327 22.5251,1.7718 19.1038,2.3765 15.642,2.634 12.4581,2.5648 9.3288,2.5224 5.6828,2.6589 2.0014,3.0557 0.3678,3.3103 A3.3306,3.3306 0 0 1 -0.3678,-3.3103 Z" stroke-linecap="round" fill="#4f72fc"/></g></g><g transform="matrix(1, 0, 0, 1, 558.4, 480.6001)" opacity="1"><g transform="scale(1)"><path d="M3.249,0 T3.1541,1.824 3.0258,5.1875 3.0391,8.484 3.1544,11.7786 3.2767,14.8521 3.6436,18.3817 4.3122,22.1931 4.8158,25.4871 5.6421,28.8453 8.2133,31.5321 11.9818,32.3743 15.2585,32.4118 18.2997,32.4221 22.0154,32.4654 25.832,32.5036 29.2229,32.4831 32.481,32.4367 35.5737,32.4036 38.6416,32.7184 42.0502,33.088 45.4009,33.1273 48.8222,33.1312 52.7601,33.1815 56.2183,33.2293 59.5806,32.3257 62.9073,29.9313 64.2906,27.0455 64.2937,24.4773 64.2945,23.3088 A3.6993,3.6993 0 0 1 71.6923,23.4139 T71.6584,24.6815 71.4629,27.5582 70.6405,31.0195 69.0723,34.0214 66.7867,36.2864 63.4424,38.2844 59.6207,39.7664 56.2831,40.3705 52.7588,40.4178 48.81,40.465 45.3468,40.4486 42.2906,40.4058 38.8516,39.9962 35.5005,39.5964 32.4809,39.5633 29.2227,39.5168 25.8315,39.4961 22.0134,39.5336 18.2929,39.5746 15.2391,39.5771 11.9137,39.5883 7.7936,39.4946 4.1321,38.8504 1.4292,36.8323 -0.4229,33.0379 -1.4871,29.0363 -2.1187,25.567 -2.5581,22.341 -3.0773,18.6402 -3.2767,14.8521 -3.1544,11.7786 -3.0391,8.484 -3.0258,5.1875 -3.1541,1.824 -3.249,0 A3.249,3.249 0 0 1 3.249,0 ZM66.8335,26.8741 T65.9419,26.5781 63.4905,26.216 59.7259,25.8922 56.113,25.5077 53.2933,25.346 50.2778,25.3083 46.7922,25.3005 43.2107,25.2988 38.6817,24.7056 33.7683,23.2158 29.6804,20.5604 27.0806,17.3911 26.2539,14.4781 25.9627,11.2417 26.134,8.1252 26.5114,5.2634 26.7284,2.2243 26.7996,0.6612 A3.6031,3.6031 0 0 1 34.0004,0.9388 T33.8893,3.381 33.5571,7.629 33.3977,11.3094 34.2184,14.5172 37.0728,16.9034 40.9736,17.9264 44.5636,17.8967 48.147,17.9002 51.6161,17.925 54.7937,17.9881 58.1069,18.3558 61.5264,18.7042 64.9884,18.9066 67.995,19.4677 69.1532,19.8486 A3.6993,3.6993 0 0 1 66.8335,26.8741 Z" stroke-linecap="round" fill="#4f72fc"/></g></g><g transform="matrix(1, 0, 0, 1, 380.8, 213.4)" opacity="1"><g transform="scale(1)"><path d="M-2.9488,-0.9829 T-2.5869,-2.078 -1.5026,-5.1147 -0.5165,-8.9293 0.2927,-12.6539 1.1515,-16.5953 1.5119,-20.5726 1.9833,-25.3021 2.4076,-28.1437 A3.3289,3.3289 0 0 1 8.7924,-26.2563 T8.4223,-25.3123 7.9511,-22.5767 7.6812,-19.3574 7.0852,-15.4299 6.3215,-11.5278 5.8284,-8.613 5.2979,-5.7069 4.3042,-2.759 3.3165,-0.1108 2.9488,0.9829 A3.1083,3.1083 0 0 1 -2.9488,-0.9829 Z" stroke-linecap="round" fill="#4f72fc"/></g></g></svg>